<svg xmlns="http://www.w3.org/2000/svg" width="1452" height="431" viewBox="0 0 1452 431">
  <g fill="none" fill-rule="evenodd">
    <g stroke-linejoin="square">
      <rect width="1442" height="421" x="5" y="5" fill="#000" stroke="#A6A6A6" stroke-width="10" rx="40"/>
      <rect width="1447" height="426" x="2.5" y="2.5" stroke="#8F8F8F" stroke-width="5" rx="40"/>
    </g>
    <path fill="#FFF" d="M557.331055 331L581.735352 331 528.3125 183.036133 503.600586 183.036133 450.177734 331 473.761719 331 487.399414 291.727539 543.795898 291.727539 557.331055 331zM514.777344 209.901367L516.520508 209.901367 537.951172 272.450195 493.244141 272.450195 514.777344 209.901367zM646.44375 217.489258C631.267969 217.489258 618.142969 225.077148 611.375391 237.791992L609.734766 237.791992 609.734766 219.334961 588.50918 219.334961 588.50918 367.196289 610.555079 367.196289 610.555079 314.081055 612.298243 314.081055C618.142969 325.873047 630.755274 332.845703 646.648829 332.845703 674.847071 332.845703 692.791407 310.594727 692.791407 275.116211 692.791407 239.637695 674.847071 217.489258 646.44375 217.489258L646.44375 217.489258zM640.188868 313.055664C621.731836 313.055664 610.144922 298.495117 610.144922 275.21875 610.144922 251.839844 621.731836 237.279297 640.291407 237.279297 658.953516 237.279297 670.130274 251.532227 670.130274 275.116211 670.130274 298.802734 658.953516 313.055664 640.188868 313.055664L640.188868 313.055664zM760.781055 217.489258C745.605274 217.489258 732.480274 225.077148 725.712696 237.791992L724.072071 237.791992 724.072071 219.334961 702.846485 219.334961 702.846485 367.196289 724.892384 367.196289 724.892384 314.081055 726.635548 314.081055C732.480274 325.873047 745.092579 332.845703 760.986134 332.845703 789.184376 332.845703 807.128712 310.594727 807.128712 275.116211 807.128712 239.637695 789.184376 217.489258 760.781055 217.489258L760.781055 217.489258zM754.526173 313.055664C736.069141 313.055664 724.482227 298.495117 724.482227 275.21875 724.482227 251.839844 736.069141 237.279297 754.628712 237.279297 773.290821 237.279297 784.467579 251.532227 784.467579 275.116211 784.467579 298.802734 773.290821 313.055664 754.526173 313.055664L754.526173 313.055664zM853.796486 291.214844C855.437111 317.669922 877.483009 334.588867 910.295509 334.588867 945.363869 334.588867 967.307228 316.849609 967.307228 288.548828 967.307228 266.297852 954.797462 253.993164 924.4459 246.917969L908.142189 242.918945C888.864845 238.407227 881.071877 232.357422 881.071877 221.795898 881.071877 208.46582 893.171486 199.75 911.3209 199.75 928.547462 199.75 940.441994 208.260742 942.595314 221.898438L964.94883 221.898438C963.615822 196.981445 941.672462 179.447266 911.628517 179.447266 879.328712 179.447266 857.795509 196.981445 857.795509 223.333984 857.795509 245.072266 869.997658 257.992188 896.760353 264.24707L915.832619 268.861328C935.41758 273.475586 944.030861 280.243164 944.030861 291.522461 944.030861 304.647461 930.495705 314.183594 912.038673 314.183594 892.248634 314.183594 878.5084 305.262695 876.560158 291.214844L853.796486 291.214844zM986.283205 192.264648L986.283205 219.847656 967.928713 219.847656 967.928713 238.407227 986.283205 238.407227 986.283205 301.46875C986.283205 323.001953 996.024416 331.615234 1020.53125 331.615234 1024.83789 331.615234 1028.83692 331.102539 1032.32324 330.487305L1032.32324 312.132812C1029.24707 312.44043 1027.50391 312.645508 1024.12012 312.645508 1013.14844 312.645508 1008.3291 307.518555 1008.3291 295.829102L1008.3291 238.407227 1033.34863 238.407227 1033.34863 219.847656 1008.3291 219.847656 1008.3291 192.264648 986.283205 192.264648zM1088.00821 313.568359C1068.8334 313.568359 1058.0668 299.520508 1058.0668 275.116211 1058.0668 250.916992 1068.8334 236.766602 1088.00821 236.766602 1107.08047 236.766602 1117.94961 250.916992 1117.94961 275.116211 1117.94961 299.417969 1107.08047 313.568359 1088.00821 313.568359L1088.00821 313.568359zM1088.00821 333.15332C1120.61563 333.15332 1140.61074 311.3125 1140.61074 275.116211 1140.61074 239.125 1120.51309 217.181641 1088.00821 217.181641 1055.40078 217.181641 1035.30313 239.125 1035.30313 275.116211 1035.30313 311.3125 1055.29824 333.15332 1088.00821 333.15332L1088.00821 333.15332zM1150.66582 331L1172.71172 331 1172.71172 265.067383C1172.71172 249.378906 1184.50371 238.817383 1201.11504 238.817383 1204.80645 238.817383 1211.57403 239.535156 1213.31719 240.150391L1213.31719 218.412109C1210.95879 217.796875 1206.75469 217.489258 1203.57598 217.489258 1189.01543 217.489258 1176.71074 225.487305 1173.53203 236.458984L1171.89141 236.458984 1171.89141 219.334961 1150.66582 219.334961 1150.66582 331zM1262.95235 235.946289C1279.25606 235.946289 1289.92012 247.328125 1290.43282 264.862305L1234.03633 264.862305C1235.2668 247.430664 1246.64864 235.946289 1262.95235 235.946289L1262.95235 235.946289zM1290.33028 300.853516C1286.22871 309.569336 1277.10274 314.388672 1263.77266 314.388672 1246.13594 314.388672 1234.7541 301.981445 1234.03633 282.396484L1234.03633 281.166016 1312.88887 281.166016 1312.88887 273.475586C1312.88887 238.407227 1294.12422 217.181641 1263.05489 217.181641 1231.57539 217.181641 1211.58028 239.842773 1211.58028 275.526367 1211.58028 311.209961 1231.16524 333.15332 1263.15742 333.15332 1288.68965 333.15332 1306.53145 320.848633 1311.55586 300.853516L1290.33028 300.853516zM470.837891 67.5410156L470.837891 138 496.277344 138C517.273438 138 529.431641 125.060547 529.431641 102.550781 529.431641 80.3828125 517.175781 67.5410156 496.277344 67.5410156L470.837891 67.5410156zM481.775391 77.5019531L495.056641 77.5019531C509.65625 77.5019531 518.298828 86.7792969 518.298828 102.697266 518.298828 118.859375 509.802734 128.039062 495.056641 128.039062L481.775391 128.039062 481.775391 77.5019531zM567.917969 129.699219C558.787109 129.699219 553.660156 123.009766 553.660156 111.388672 553.660156 99.8652344 558.787109 93.1269531 567.917969 93.1269531 577 93.1269531 582.175781 99.8652344 582.175781 111.388672 582.175781 122.960938 577 129.699219 567.917969 129.699219L567.917969 129.699219zM567.917969 139.025391C583.445312 139.025391 592.966797 128.625 592.966797 111.388672 592.966797 94.25 583.396484 83.8007812 567.917969 83.8007812 552.390625 83.8007812 542.820312 94.25 542.820312 111.388672 542.820312 128.625 552.341797 139.025391 567.917969 139.025391L567.917969 139.025391zM675.251953 84.8261719L664.753906 84.8261719 655.28125 125.402344 654.451172 125.402344 643.513672 84.8261719 633.455078 84.8261719 622.517578 125.402344 621.736328 125.402344 612.214844 84.8261719 601.570312 84.8261719 616.21875 138 627.009766 138 637.947266 98.8398438 638.777344 98.8398438 649.763672 138 660.652344 138 675.251953 84.8261719zM688.591797 138L699.089844 138 699.089844 106.896484C699.089844 98.5957031 704.265625 93.4199219 712.712891 93.4199219 720.525391 93.4199219 724.333984 97.6679688 724.333984 106.212891L724.333984 138 734.832031 138 734.832031 103.576172C734.832031 90.9296875 728.142578 83.8007812 716.277344 83.8007812 708.269531 83.8007812 702.068359 87.3652344 699.480469 93.2734375L698.699219 93.2734375 698.699219 84.8261719 688.591797 84.8261719 688.591797 138zM752.566406 138L763.064453 138 763.064453 64.0742188 752.566406 64.0742188 752.566406 138zM803.748047 129.699219C794.617188 129.699219 789.490234 123.009766 789.490234 111.388672 789.490234 99.8652344 794.617188 93.1269531 803.748047 93.1269531 812.830078 93.1269531 818.005859 99.8652344 818.005859 111.388672 818.005859 122.960938 812.830078 129.699219 803.748047 129.699219L803.748047 129.699219zM803.748047 139.025391C819.275391 139.025391 828.796875 128.625 828.796875 111.388672 828.796875 94.25 819.226562 83.8007812 803.748047 83.8007812 788.220703 83.8007812 778.650391 94.25 778.650391 111.388672 778.650391 128.625 788.171875 139.025391 803.748047 139.025391L803.748047 139.025391zM861.277344 130.041016C855.564453 130.041016 851.414062 127.257812 851.414062 122.472656 851.414062 117.785156 854.734375 115.294922 862.058594 114.806641L875.046875 113.976562 875.046875 118.419922C875.046875 125.011719 869.1875 130.041016 861.277344 130.041016L861.277344 130.041016zM858.591797 138.878906C865.574219 138.878906 871.384766 135.851562 874.558594 130.529297L875.388672 130.529297 875.388672 138 885.496094 138 885.496094 101.671875C885.496094 90.4414062 877.976562 83.8007812 864.646484 83.8007812 852.585938 83.8007812 843.992188 89.6601562 842.917969 98.7910156L853.074219 98.7910156C854.246094 95.03125 858.298828 92.8828125 864.158203 92.8828125 871.335938 92.8828125 875.046875 96.0566406 875.046875 101.671875L875.046875 106.261719 860.642578 107.091797C847.996094 107.873047 840.867188 113.390625 840.867188 122.960938 840.867188 132.677734 848.337891 138.878906 858.591797 138.878906L858.591797 138.878906zM922.371094 138.878906C929.695312 138.878906 935.896484 135.412109 939.070312 129.601562L939.900391 129.601562 939.900391 138 949.958984 138 949.958984 64.0742188 939.460938 64.0742188 939.460938 93.2734375 938.679688 93.2734375C935.798828 87.4140625 929.646484 83.9472656 922.371094 83.9472656 908.943359 83.9472656 900.300781 94.5917969 900.300781 111.388672 900.300781 128.234375 908.845703 138.878906 922.371094 138.878906L922.371094 138.878906zM925.349609 93.3710938C934.138672 93.3710938 939.65625 100.353516 939.65625 111.4375 939.65625 122.570312 934.1875 129.455078 925.349609 129.455078 916.462891 129.455078 911.140625 122.667969 911.140625 111.388672 911.140625 100.207031 916.511719 93.3710938 925.349609 93.3710938L925.349609 93.3710938zM1020.48633 129.699219C1011.35547 129.699219 1006.22852 123.009766 1006.22852 111.388672 1006.22852 99.8652344 1011.35547 93.1269531 1020.48633 93.1269531 1029.56836 93.1269531 1034.74414 99.8652344 1034.74414 111.388672 1034.74414 122.960938 1029.56836 129.699219 1020.48633 129.699219L1020.48633 129.699219zM1020.48633 139.025391C1036.01367 139.025391 1045.53516 128.625 1045.53516 111.388672 1045.53516 94.25 1035.96484 83.8007812 1020.48633 83.8007812 1004.95898 83.8007812 995.388672 94.25 995.388672 111.388672 995.388672 128.625 1004.91016 139.025391 1020.48633 139.025391L1020.48633 139.025391zM1060.63281 138L1071.13086 138 1071.13086 106.896484C1071.13086 98.5957031 1076.30664 93.4199219 1084.75391 93.4199219 1092.56641 93.4199219 1096.375 97.6679688 1096.375 106.212891L1096.375 138 1106.87305 138 1106.87305 103.576172C1106.87305 90.9296875 1100.18359 83.8007812 1088.31836 83.8007812 1080.31055 83.8007812 1074.10938 87.3652344 1071.52148 93.2734375L1070.74023 93.2734375 1070.74023 84.8261719 1060.63281 84.8261719 1060.63281 138zM1157.67383 71.9355469L1157.67383 85.0703125 1148.93359 85.0703125 1148.93359 93.9082031 1157.67383 93.9082031 1157.67383 123.9375C1157.67383 134.191406 1162.3125 138.292969 1173.98242 138.292969 1176.0332 138.292969 1177.9375 138.048828 1179.59766 137.755859L1179.59766 129.015625C1178.13281 129.162109 1177.30273 129.259766 1175.69141 129.259766 1170.4668 129.259766 1168.17188 126.818359 1168.17188 121.251953L1168.17188 93.9082031 1180.08594 93.9082031 1180.08594 85.0703125 1168.17188 85.0703125 1168.17188 71.9355469 1157.67383 71.9355469zM1195.03711 138L1205.53516 138 1205.53516 106.945312C1205.53516 98.8886719 1210.85742 93.46875 1219.45117 93.46875 1227.36133 93.46875 1231.31641 97.765625 1231.31641 106.261719L1231.31641 138 1241.81445 138 1241.81445 103.673828C1241.81445 91.0273438 1234.97852 83.8496094 1223.01562 83.8496094 1215.00781 83.8496094 1208.85547 87.4140625 1206.26758 93.3710938L1205.4375 93.3710938 1205.4375 64.0742188 1195.03711 64.0742188 1195.03711 138zM1280.93555 92.7363281C1288.69922 92.7363281 1293.77734 98.15625 1294.02148 106.505859L1267.16602 106.505859C1267.75195 98.2050781 1273.17188 92.7363281 1280.93555 92.7363281L1280.93555 92.7363281zM1293.97266 123.644531C1292.01953 127.794922 1287.67383 130.089844 1281.32617 130.089844 1272.92773 130.089844 1267.50781 124.181641 1267.16602 114.855469L1267.16602 114.269531 1304.71484 114.269531 1304.71484 110.607422C1304.71484 93.9082031 1295.7793 83.8007812 1280.98438 83.8007812 1265.99414 83.8007812 1256.47266 94.5917969 1256.47266 111.583984 1256.47266 128.576172 1265.79883 139.025391 1281.0332 139.025391 1293.19141 139.025391 1301.6875 133.166016 1304.08008 123.644531L1293.97266 123.644531z"/>
    <path fill="#FFF" d="M193.340766 150.55423C193.018956 114.788858 222.625537 97.3888881 223.979361 96.5788129 207.211916 72.132299 181.22293 68.7921262 172.090165 68.5258002 150.262524 66.2287378 129.089602 81.5868745 117.970488 81.5868745 106.629437 81.5868745 89.5068896 68.7477385 71.0527122 69.1250338 47.3053043 69.4912322 25.0892712 83.2403156 12.9048535 104.590789-12.2407663 148.124005 6.5130278 212.097746 30.6044403 247.286078 42.655695 264.530691 56.737686 283.761653 75.1696694 283.084741 93.2021638 282.352344 99.937994 271.588332 121.699053 271.588332 143.260368 271.588332 149.585612 283.084741 168.383794 282.640864 187.736822 282.352344 199.92124 265.340766 211.550811 247.940796 225.477446 228.210473 231.070293 208.735379 231.292231 207.736657 230.848355 207.592397 193.718062 193.42163 193.340766 150.55423M157.830624 45.3776258C167.529331 33.2486927 174.165289 16.7475733 172.323201.00232156273 158.285597.623749061 140.73027 9.71212622 130.620977 21.5747333 121.67686 32.0280316 113.687077 49.1616754 115.751104 65.2744027 131.519827 66.4506762 147.710233 57.3179113 157.830624 45.3776258" transform="translate(130 67)"/>
  </g>
</svg>
