<svg xmlns="http://www.w3.org/2000/svg" xmlns:xlink="http://www.w3.org/1999/xlink" width="1487" height="440" viewBox="0 0 1487 440">
  <defs>
    <linearGradient id="playstore-b" x1="50%" x2="50%" y1="0%" y2="38.913%">
      <stop offset="0%" stop-color="#FBDA09"/>
      <stop offset="100%" stop-color="#FFBC00"/>
    </linearGradient>
    <path id="playstore-a" d="M111.334225,25.7052027 C119.936931,10.580089 133.882905,10.5766263 142.48783,25.7052027 L264.619949,240.429348 C273.222904,255.554462 266.10145,267.815789 248.70453,267.815789 L5.12152392,267.815789 C-12.2712746,267.815789 -19.3990224,255.557924 -10.7943476,240.429348 L111.334225,25.7052027 Z"/>
    <linearGradient id="playstore-c" x1="37.516%" x2="54.821%" y1="58.476%" y2="39.083%">
      <stop offset="0%" stop-color="#01E2FF"/>
      <stop offset="100%" stop-color="#01C4FF"/>
    </linearGradient>
    <linearGradient id="playstore-e" x1="20.281%" x2="83.82%" y1="32.433%" y2="69.755%">
      <stop offset="0%" stop-color="#28D781"/>
      <stop offset="100%" stop-color="#02F076"/>
    </linearGradient>
    <linearGradient id="playstore-f" x1="74.488%" x2="10.108%" y1="35.169%" y2="68.753%">
      <stop offset="0%" stop-color="#F2414E"/>
      <stop offset="100%" stop-color="#E02554"/>
    </linearGradient>
  </defs>
  <g fill="none" fill-rule="evenodd">
    <g stroke-linejoin="square">
      <rect width="1477" height="429.196" x="5" y="5" fill="#000" stroke="#A6A6A6" stroke-width="10" rx="50"/>
      <rect width="1482" height="434.196" x="2.5" y="2.5" stroke="#8F8F8F" stroke-width="5" rx="50"/>
    </g>
    <g fill="#FFF" transform="translate(456 74)">
      <path d="M332 0C351.882251 0 368 16.117749 368 36 368 55.882251 351.882251 72 332 72 312.117749 72 296 55.882251 296 36 296 16.117749 312.117749 0 332 0zM332 11C318.192881 11 307 22.1928813 307 36 307 49.8071187 318.192881 61 332 61 345.807119 61 357 49.8071187 357 36 357 22.1928813 345.807119 11 332 11zM117 3L117 11 88 11 88 32 114 32 114 40 88 40 88 62 117 62 117 70 77 70 77 3 117 3zM173 3L173 11 156 11 156 70 145 70 145 11 128 11 128 3 173 3zM271 3L271 11 254 11 254 70 243 70 243 11 226 11 226 3 271 3z"/>
      <rect width="11" height="67" x="205" y="3"/>
      <path d="M388,17.707 L388,70 L377,70 L377,3 L390,3 L420,52.024 L420,3 L431,3 L431,70 L420,70 L388,17.707 Z"/>
      <g transform="translate(0 1)">
        <polygon points="35.783 32.17 65.901 32.17 65.603 41.702 35.783 41.702"/>
        <path d="M35.335971,0 C45.5366665,0 54.1118684,3.55994938 59.9739069,9.74223745 L53.081927,16.6263002 C48.7833657,12.2363578 42.6782927,9.82975623 35.6341649,9.82975623 C21.5533482,9.82975623 10.1385908,21.2321704 10.1385908,35.297761 C10.1385908,49.3633516 21.5533482,60.7657658 35.6341649,60.7657658 C49.7149816,60.7657658 59.7121533,52.6342256 59.6911866,35.297761 C59.715,34.226449 59.6900286,33.1836177 59.618411,32.1703105 L68.415,32.17 L68.4174335,32.5244154 C71.6935938,56.5547136 55.5065078,70.4935651 35.9302129,70.5966375 L35.335971,70.595522 C15.8204719,70.5675695 0,54.7921761 0,35.297761 C0,15.8033459 15.8204531,0 35.335971,0 Z"/>
      </g>
    </g>
    <g fill="#FFF" transform="translate(451 192)">
      <g transform="translate(624 5)">
        <path d="M61.6928936,0 C61.6928936,0 94.3294296,5.55273437 94.3294271,43.0297987 C94.3294245,80.5068629 61.6928936,86.0595973 61.6928936,86.0595973 L5,86.0596008 L5,3.51464178e-06 L61.6928936,0 Z M54.4911252,20.8169358 L16,20.8169128 L16,67 L54.485906,67 C54.485906,67 72,67 72,43.9084564 C72,20.8169128 54.485906,20.8169128 54.485906,20.8169128 Z"/>
        <rect width="20" height="140"/>
      </g>
      <rect width="20" height="140" x="730" y="5"/>
      <path d="M803.4288 52C838.208982 52 844.130094 75.9893799 844.130094 84.0689697L844.128 84.125 844.128019 144.955078 824.128019 144.955078 824.129976 134.988518C818.6214 139.534206 809.813924 143.812798 795.902433 144.681641 764.673069 146.632072 764.032536 118.743508 764.019407 115.781568L764.019132 115.631836C764.019132 113.6709 762.447355 89.956543 787.796476 86.1870117 805.747333 83.5176364 818.319636 87.9657989 824.12917 90.7896098L824.128771 86.678479C822.704792 81.2312986 818.284116 71.2177734 805.026456 71.2177734 786.815607 71.2177734 782.794035 81.0634766 782.794035 81.0634766L766.134855 71.2177734C766.134855 71.2177734 775.457031 52 803.4288 52zM782.829679 116.263184C781.490324 137.908691 819.794035 127.515137 823.216398 112.170898 823.216397 107.291504 822.699308 105.00293 822.699308 105.00293 822.699308 105.00293 784.169035 94.6176765 782.829679 116.263184zM866 55L891.656 115.937 917.109375 55.484375 937.109375 55.484375 883 184 863 184 881.656 139.689 846 55 866 55zM536.925375 52C570.456382 52 579.225347 87.7256561 579.225347 87.7256561L579.225347 87.7256561 515.971382 113.867149C515.971382 113.867149 520.056556 128.325968 539.074315 128.422877 553.965929 128.49876 562.37233 115.223582 562.37233 115.223582L562.37233 115.223582 578.42071 126.09202C578.42071 126.09202 565.470547 147.036382 538.947907 147.036382 506.355239 147.036382 492 118.536746 492 100.028142 492 82.1955793 503.394368 52 536.925375 52zM534.995218 70.4449359C509.177547 75.1684986 512.426481 97.7615592 512.426481 97.7615592L555.158551 80.3201529C555.158551 80.3201529 547.200324 68.211908 534.995218 70.4449359z"/>
      <rect width="21.159" height="139.706" x="462" y="5"/>
      <path d="M401.947253 52.0147593C419.63712 51.5174121 428.139896 63.7547098 428.139896 63.7547098L428.139896 63.7547098 428.139896 55.0362628 447.699143 55.2052336 447.699143 143.355363C447.699143 165.877479 434.290144 189.651733 402.722111 189.651733 371.154079 189.651733 360.958766 161.682058 360.958766 161.682058L360.958766 161.682058 378.92211 154.12739C378.92211 154.12739 384.400814 171.365081 403.655588 171.365058 425.582559 171.365032 428.142327 151.416343 428.142327 144.58785L428.142327 144.58785 428.142327 135.021519C428.142327 135.021519 420.5554 146.895886 401.710845 146.895912 381.279502 146.895941 357 129.390838 357 99.5481092 357 69.7053804 379.862271 52.6356743 401.947253 52.0147593zM403.380893 70.6167431C389.117487 70.6167431 377.554713 83.6824201 377.554713 99.7997496 377.554713 115.917079 389.117487 128.982756 403.380893 128.982756 417.644298 128.982756 429.207073 115.917079 429.207073 99.7997496 429.207073 83.6824201 417.644298 70.6167431 403.380893 70.6167431zM300.607296 52C326.90008 52 348.214592 73.2664744 348.214592 99.5 348.214592 125.733526 326.90008 147 300.607296 147 274.314513 147 253 125.733526 253 99.5 253 73.2664744 274.314513 52 300.607296 52zM300.296137 70.627451C285.517187 70.627451 273.536481 83.5541315 273.536481 99.5 273.536481 115.445869 285.517187 128.372549 300.296137 128.372549 315.075088 128.372549 327.055794 115.445869 327.055794 99.5 327.055794 83.5541315 315.075088 70.627451 300.296137 70.627451zM197.607296 52C223.90008 52 245.214592 73.2664744 245.214592 99.5 245.214592 125.733526 223.90008 147 197.607296 147 171.314513 147 150 125.733526 150 99.5 150 73.2664744 171.314513 52 197.607296 52zM197.296137 70.627451C182.517187 70.627451 170.536481 83.5541315 170.536481 99.5 170.536481 115.445869 182.517187 128.372549 197.296137 128.372549 212.075088 128.372549 224.055794 115.445869 224.055794 99.5 224.055794 83.5541315 212.075088 70.627451 197.296137 70.627451z"/>
      <polygon points="74.678 67.059 137.532 67.059 136.91 86.928 74.678 86.928"/>
      <path d="M73.7446352,0 C95.0333941,0 112.929707,7.42098431 125.163541,20.3084001 L110.781028,34.6590217 C101.810046,25.507279 89.0684812,20.4901961 74.3669528,20.4901961 C44.9809005,20.4901961 21.1587983,44.2586086 21.1587983,73.5784314 C21.1587983,102.898254 44.9809005,126.666667 74.3669528,126.666667 C103.753005,126.666667 124.616668,109.716414 124.572911,73.5784314 C124.622618,71.3448578 124.570475,69.1706744 124.420948,67.0580578 L142.779,67.058 L142.784209,67.7973729 C149.621413,117.888699 115.839669,146.944333 74.9847922,147.159188 L73.7446352,147.156863 C33.016637,147.098596 0,114.214677 0,73.5784314 C0,32.9421858 33.0165978,0 73.7446352,0 Z"/>
    </g>
    <g transform="translate(109 78)">
      <mask id="playstore-d" fill="#fff">
        <use xlink:href="#playstore-a"/>
      </mask>
      <use fill="url(#playstore-b)" transform="rotate(90 126.909 141.105)" xlink:href="#playstore-a"/>
      <polygon fill="url(#playstore-c)" points="0 -.099 139.787 138.837 -1.806 283.263" mask="url(#playstore-d)"/>
      <polygon fill="url(#playstore-e)" points="-28.745 -28.7 139.77 138.877 189.872 91.081" mask="url(#playstore-d)"/>
      <polygon fill="url(#playstore-f)" points="139.793 138.845 216.494 216.156 -12.642 293.467" mask="url(#playstore-d)"/>
    </g>
  </g>
</svg>
